<svg width="132" height="132" xmlns="http://www.w3.org/2000/svg">
	<g>
		<path fill="#b833a8" d="m66.034,1c-27.142,0 -35.08,0.028 -36.623,0.156c-5.57,0.463 -9.036,1.34 -12.812,3.22c-2.91,1.445 -5.205,3.12 -7.47,5.468c-4.125,4.282 -6.625,9.55 -7.53,15.812c-0.44,3.04 -0.568,3.66 -0.594,19.188c-0.01,5.176 0,11.988 0,21.125c0,27.12 0.03,35.05 0.16,36.59c0.45,5.42 1.3,8.83 3.1,12.56c3.44,7.14 10.01,12.5 17.75,14.5c2.68,0.69 5.64,1.07 9.44,1.25c1.61,0.07 18.02,0.12 34.44,0.12c16.42,0 32.84,-0.02 34.41,-0.1c4.4,-0.207 6.955,-0.55 9.78,-1.28c7.79,-2.01 14.24,-7.29 17.75,-14.53c1.765,-3.64 2.66,-7.18 3.065,-12.317c0.088,-1.12 0.125,-18.977 0.125,-36.81c0,-17.836 -0.04,-35.66 -0.128,-36.78c-0.41,-5.22 -1.305,-8.73 -3.127,-12.44c-1.495,-3.037 -3.155,-5.305 -5.565,-7.624c-4.301,-4.108 -9.561,-6.608 -15.829,-7.512c-3.037,-0.439 -3.642,-0.569 -19.182,-0.596l-21.16,0z" id="svg_2" />
		<path fill="#fff" d="m66.004,18c-13.036,0 -14.672,0.057 -19.792,0.29c-5.11,0.234 -8.598,1.043 -11.65,2.23c-3.157,1.226 -5.835,2.866 -8.503,5.535c-2.67,2.668 -4.31,5.346 -5.54,8.502c-1.19,3.053 -2,6.542 -2.23,11.65c-0.229,5.12 -0.289,6.757 -0.289,19.793s0.058,14.667 0.29,19.787c0.235,5.11 1.044,8.598 2.23,11.65c1.227,3.157 2.867,5.835 5.536,8.503c2.667,2.67 5.345,4.314 8.5,5.54c3.054,1.187 6.543,1.996 11.652,2.23c5.12,0.233 6.755,0.29 19.79,0.29c13.037,0 14.668,-0.057 19.788,-0.29c5.11,-0.234 8.602,-1.043 11.656,-2.23c3.156,-1.226 5.83,-2.87 8.497,-5.54c2.67,-2.668 4.31,-5.346 5.54,-8.502c1.18,-3.053 1.99,-6.542 2.23,-11.65c0.23,-5.12 0.29,-6.752 0.29,-19.788c0,-13.036 -0.06,-14.672 -0.29,-19.792c-0.24,-5.11 -1.05,-8.598 -2.23,-11.65c-1.23,-3.157 -2.87,-5.835 -5.54,-8.503c-2.67,-2.67 -5.34,-4.31 -8.5,-5.535c-3.06,-1.187 -6.55,-1.996 -11.66,-2.23c-5.12,-0.233 -6.75,-0.29 -19.79,-0.29l0.015,0zm-4.321,8.65c1.278,-0.002 2.704,0 4.306,0c12.816,0 14.335,0.046 19.396,0.276c4.68,0.214 7.22,0.996 8.912,1.653c2.24,0.87 3.837,1.91 5.516,3.59c1.68,1.68 2.72,3.28 3.592,5.52c0.657,1.69 1.44,4.23 1.653,8.91c0.23,5.06 0.28,6.58 0.28,19.39s-0.05,14.33 -0.28,19.39c-0.214,4.68 -0.996,7.22 -1.653,8.91c-0.87,2.24 -1.912,3.835 -3.592,5.514c-1.68,1.68 -3.275,2.72 -5.516,3.59c-1.69,0.66 -4.232,1.44 -8.912,1.654c-5.06,0.23 -6.58,0.28 -19.396,0.28c-12.817,0 -14.336,-0.05 -19.396,-0.28c-4.68,-0.216 -7.22,-0.998 -8.913,-1.655c-2.24,-0.87 -3.84,-1.91 -5.52,-3.59c-1.68,-1.68 -2.72,-3.276 -3.592,-5.517c-0.657,-1.69 -1.44,-4.23 -1.653,-8.91c-0.23,-5.06 -0.276,-6.58 -0.276,-19.398s0.046,-14.33 0.276,-19.39c0.214,-4.68 0.996,-7.22 1.653,-8.912c0.87,-2.24 1.912,-3.84 3.592,-5.52c1.68,-1.68 3.28,-2.72 5.52,-3.592c1.692,-0.66 4.233,-1.44 8.913,-1.655c4.428,-0.2 6.144,-0.26 15.09,-0.27l0,0.012zm29.928,7.97c-3.18,0 -5.76,2.577 -5.76,5.758c0,3.18 2.58,5.76 5.76,5.76c3.18,0 5.76,-2.58 5.76,-5.76c0,-3.18 -2.58,-5.76 -5.76,-5.76l0,0.002zm-25.622,6.73c-13.613,0 -24.65,11.037 -24.65,24.65c0,13.613 11.037,24.645 24.65,24.645c13.628,0 24.661,-11.032 24.661,-24.645s-11.034,-24.65 -24.647,-24.65l-0.014,0zm0,8.65c8.836,0 16,7.163 16,16c0,8.836 -7.164,16 -16,16c-8.837,0 -16,-7.164 -16,-16c0,-8.837 7.163,-16 16,-16z" id="svg_3" />
	</g>
</svg>