<svg height="131" width="131" xmlns="http://www.w3.org/2000/svg">
	<g>
		<path d="M0,64.8c0-11.7-0.1-23.3,0-35C0.2,12.9,12.8,0.2,29.8,0.1c23.7-0.1,47.3-0.1,71,0c17,0.1,29.6,12.8,29.7,29.7 c0.1,23.7,0.1,47.3,0,71c-0.1,16.9-12.7,29.6-29.7,29.7c-23.7,0.1-47.3,0.1-71,0c-17-0.1-29.6-12.8-29.7-29.7 C-0.1,88.8,0,76.8,0,64.8z M126,65.7c0-11.2,0.1-22.3,0-33.5c-0.1-16.1-11.1-27.5-27.2-27.7c-22.3-0.2-44.6-0.2-66.9,0 C15.7,4.7,4.6,16,4.6,32.2c-0.1,22-0.1,44,0,66c0.1,16.5,11.1,27.8,27.5,27.9c22.1,0.2,44.3,0.2,66.5,0 c16.4-0.1,27.4-11.4,27.5-27.9C126,87.3,126,76.5,126,65.7z" />
		<path d="M65.9,105.4c-0.8,0-1.7,0-2.5,0c-12.7,0.8-11.4-3.3-11.2-12.7c0.1-3.6,2.2-5.5,5.8-5.6c3.7-0.1,7.3,0,11-0.1 c13.1-0.4,22.8-9.6,22.9-21.6c0.1-12.1-9.5-21.3-22.7-21.7c-3.7-0.1-7.3,0.1-11-0.1c-3.7-0.2-5.8-2.2-6-6c-0.1-2.3-0.1-4.7,0-7 c0.2-3.3,2.1-5.4,5.4-5.4c6.3,0,12.8-0.5,18.9,0.5c21,3.5,35.2,22.1,33.5,43C108.4,89.2,91,105,69.9,105.4 C68.6,105.4,67.3,105.4,65.9,105.4z" />
		<path fill="#d71344" d="M42.9,79.3c0,6.2,0.1,12.3,0,18.5c-0.1,5.6-1.9,7.3-7.6,7.5c-11.9,0.3-12.5-0.3-12.5-12.1c0-11-0.1-22,0-33 c0-6.3,1.7-7.8,8.1-7.9c1.7,0,3.3,0,5,0c5,0.2,6.9,1.9,6.9,7C43,66,42.9,72.7,42.9,79.3z" />
		<path d="M32.5,25.2c8.7,0,10,1.1,10,9c0,8.4-1.2,9.5-10,9.5c-8.4,0-9.8-1.4-9.8-9.3C22.6,26.6,24.1,25.2,32.5,25.2z" />
	</g>
</svg>