<svg xmlns="http://www.w3.org/2000/svg">
	<g>
		<rect fill="#633e9e" x="64.69" y="-3.71" width="22.24" height="73.86" rx="11.12" transform="translate(28 -34.34) rotate(31.05)" />
		<rect fill="#43257c" x="63.78" y="41.2" width="22.24" height="73.86" rx="11.12" transform="translate(-28.46 46.02) rotate(-28.95)" />
		<rect fill="#8361c5" x="25.81" y="18.62" width="22.24" height="73.86" rx="11.12" transform="translate(-18.62 92.48) rotate(-90)" />
		<path fill="#764fc1" d="M75.23,55.55h0A11.19,11.19,0,0,0,64.05,44.43h-8L53,49.6a12.21,12.21,0,0,0-.79,1.63l-.15.36,0,.12a11,11,0,0,0,.69,9.21l3.19,5.75h8.19A11.18,11.18,0,0,0,75.23,55.55Z" />
	</g>
</svg>