<svg height="20" width="20" xmlns="http://www.w3.org/2000/svg">
	<g fill="none" fill-rule="evenodd" stroke="none" stroke-width="1">
		<g>
			<path d="M19.6,10.2272727 C19.6,9.51818182 19.5363636,8.83636364 19.4181818,8.18181818 L10,8.18181818 L10,12.05 L15.3818182,12.05 C15.15,13.3 14.4454545,14.3590909 13.3863636,15.0681818 L13.3863636,17.5772727 L16.6181818,17.5772727 C18.5090909,15.8363636 19.6,13.2727273 19.6,10.2272727 L19.6,10.2272727 Z" id="Shape" fill="#4285F4"></path>
			<path d="M10,20 C12.7,20 14.9636364,19.1045455 16.6181818,17.5772727 L13.3863636,15.0681818 C12.4909091,15.6681818 11.3454545,16.0227273 10,16.0227273 C7.39545455,16.0227273 5.19090909,14.2636364 4.40454545,11.9 L1.06363636,11.9 L1.06363636,14.4909091 C2.70909091,17.7590909 6.09090909,20 10,20 L10,20 Z" id="Shape" fill="#34A853"></path>
			<path d="M4.40454545,11.9 C4.20454545,11.3 4.09090909,10.6590909 4.09090909,10 C4.09090909,9.34090909 4.20454545,8.7 4.40454545,8.1 L4.40454545,5.50909091 L1.06363636,5.50909091 C0.386363636,6.85909091 0,8.38636364 0,10 C0,11.6136364 0.386363636,13.1409091 1.06363636,14.4909091 L4.40454545,11.9 L4.40454545,11.9 Z" id="Shape" fill="#FBBC05"></path>
			<path d="M10,3.97727273 C11.4681818,3.97727273 12.7863636,4.48181818 13.8227273,5.47272727 L16.6909091,2.60454545 C14.9590909,0.990909091 12.6954545,0 10,0 C6.09090909,0 2.70909091,2.24090909 1.06363636,5.50909091 L4.40454545,8.1 C5.19090909,5.73636364 7.39545455,3.97727273 10,3.97727273 L10,3.97727273 Z" id="Shape" fill="#EA4335"></path>
			<polygon id="Shape" points="0 0 20 0 20 20 0 20"></polygon>
		</g>
	</g>
</svg>