<svg height="160" width="160" xmlns="http://www.w3.org/2000/svg">
	<path fill="#0097ca" d="M29.6,75.4c0.1-0.7,0.1-1.3,0.2-2c0-0.4,0.1-0.7,0.1-1.1c0.1-0.8,0.2-1.5,0.3-2.3c0-0.2,0.1-0.5,0.1-0.7 c0.1-1,0.3-2,0.4-3c0-0.2,0.1-0.5,0.1-0.7c0.1-0.8,0.2-1.5,0.4-2.3c0.1-0.3,0.1-0.7,0.2-1c0.1-0.7,0.2-1.3,0.4-2 c0.1-0.4,0.1-0.7,0.2-1.1c0.1-0.7,0.3-1.3,0.4-2c0.1-0.3,0.1-0.6,0.2-1c0.2-0.9,0.4-1.7,0.6-2.6c0-0.1,0.1-0.2,0.1-0.3 c0.2-1,0.5-2,0.8-2.9c0.1-0.3,0.1-0.5,0.2-0.8c0.2-0.7,0.4-1.4,0.6-2.1c0.1-0.3,0.2-0.7,0.3-1c0.2-0.6,0.4-1.3,0.6-1.9 c0.1-0.3,0.2-0.7,0.3-1c0.2-0.7,0.4-1.4,0.7-2c0.1-0.3,0.2-0.6,0.3-0.8c0.7-1.9,1.4-3.8,2.1-5.7c0.1-0.3,0.2-0.6,0.3-0.8 c0.3-0.7,0.5-1.3,0.8-2c0.1-0.3,0.3-0.6,0.4-1c0.3-0.6,0.5-1.2,0.8-1.9c0.1-0.3,0.3-0.6,0.4-0.9c0.3-0.7,0.6-1.4,1-2 c0.1-0.2,0.2-0.4,0.3-0.6L13.3,55.8C7.2,61.9,3.6,70.1,3.2,78.7c0.8-0.2,1.6-0.3,2.4-0.4c0.2,0,0.5-0.1,0.7-0.1 c1.2-0.2,2.5-0.4,3.7-0.6c0.4-0.1,0.7-0.1,1.1-0.1c0.9-0.1,1.8-0.2,2.7-0.3c0.4-0.1,0.9-0.1,1.3-0.2c0.8-0.1,1.7-0.2,2.5-0.3 c0.4,0,0.9-0.1,1.3-0.1c1-0.1,1.9-0.1,2.9-0.2c0.3,0,0.6,0,0.9-0.1c1.3-0.1,2.5-0.1,3.8-0.2c0.3,0,0.7,0,1,0c0.7,0,1.3,0,2,0 C29.6,75.8,29.6,75.6,29.6,75.4z" />
	<path fill="#56abd7" d="M41.6,69.4c0.6-0.5,1.2-1,1.8-1.6c0.3-0.3,0.7-0.6,1-0.8c0.5-0.4,1.1-0.9,1.6-1.3c0.4-0.3,0.7-0.6,1.1-0.9 c0.5-0.4,1-0.8,1.5-1.2c0.4-0.3,0.8-0.6,1.2-0.9c0.5-0.4,1-0.8,1.6-1.1c0.4-0.3,0.8-0.6,1.2-0.8c0.5-0.4,1.1-0.8,1.6-1.1 c0.4-0.3,0.7-0.5,1.1-0.8c0.6-0.4,1.3-0.8,1.9-1.3c0.3-0.2,0.6-0.4,0.9-0.6c0.9-0.6,1.8-1.2,2.8-1.7c0.3-0.2,0.7-0.4,1-0.6 c0.6-0.4,1.2-0.7,1.8-1.1c0.4-0.2,0.8-0.5,1.2-0.7c0.6-0.3,1.1-0.6,1.7-0.9c0.4-0.2,0.9-0.5,1.3-0.7c0.5-0.3,1.1-0.6,1.6-0.9 c0.4-0.2,0.9-0.5,1.3-0.7c0.6-0.3,1.1-0.5,1.7-0.8c0.4-0.2,0.9-0.4,1.3-0.6c0.6-0.3,1.2-0.5,1.7-0.8c0.4-0.2,0.8-0.4,1.3-0.6 c0.7-0.3,1.4-0.6,2-0.9c0.3-0.1,0.7-0.3,1-0.4c1-0.4,2-0.8,3-1.2c0.4-0.2,0.8-0.3,1.2-0.4c0.6-0.2,1.3-0.5,1.9-0.7 c0.4-0.2,0.9-0.3,1.3-0.5c0.6-0.2,1.2-0.4,1.8-0.6c0.5-0.2,0.9-0.3,1.4-0.5c0.6-0.2,1.2-0.4,1.8-0.6c0.5-0.1,0.9-0.3,1.4-0.4 c0.6-0.2,1.2-0.4,1.8-0.5c0.5-0.1,0.9-0.3,1.4-0.4c0.6-0.2,1.3-0.3,1.9-0.5c0.4-0.1,0.9-0.2,1.3-0.3c0.8-0.2,1.6-0.4,2.4-0.6 c0.3-0.1,0.6-0.1,0.8-0.2c1.1-0.2,2.1-0.5,3.2-0.7c0.4-0.1,0.8-0.1,1.1-0.2c0.7-0.1,1.4-0.3,2.1-0.4c0.4-0.1,0.9-0.2,1.3-0.2 c0.7-0.1,1.3-0.2,2-0.3c0.5-0.1,0.9-0.1,1.4-0.2c0.6-0.1,1.3-0.2,1.9-0.3c0.5-0.1,0.9-0.1,1.4-0.2c0.7-0.1,1.3-0.2,2-0.2 c0.5,0,0.9-0.1,1.4-0.1c0.7-0.1,1.4-0.1,2.2-0.2c0.4,0,0.8-0.1,1.2-0.1c1-0.1,1.9-0.1,2.9-0.2c0.2,0,0.3,0,0.5,0l0,0l-22.4-22.4 C94.7,1.9,78.2-0.6,65,6.3c-0.1,0.1-0.2,0.2-0.2,0.3c-0.8,1.1-1.6,2.2-2.4,3.3c-0.1,0.1-0.1,0.2-0.2,0.3c-0.8,1.1-1.5,2.2-2.3,3.3 c-0.1,0.1-0.1,0.2-0.2,0.3c-0.7,1.1-1.5,2.3-2.2,3.4c-0.1,0.2-0.2,0.4-0.3,0.5c-0.7,1.1-1.4,2.2-2,3.4c-0.1,0.2-0.2,0.4-0.3,0.6 c-0.7,1.2-1.3,2.3-1.9,3.5c-0.1,0.2-0.2,0.3-0.2,0.5c-1.3,2.5-2.5,5-3.6,7.5c-0.1,0.1-0.1,0.3-0.2,0.4c-0.5,1.2-1.1,2.4-1.6,3.7 c-0.1,0.2-0.2,0.4-0.2,0.6c-0.5,1.2-1,2.4-1.4,3.7c-0.1,0.2-0.1,0.4-0.2,0.5c-0.5,1.3-0.9,2.6-1.3,3.8c0,0.1,0,0.1-0.1,0.2 c-0.4,1.3-0.8,2.6-1.2,3.9c0,0.1-0.1,0.2-0.1,0.3c-0.4,1.3-0.7,2.6-1.1,3.9c0,0.2-0.1,0.4-0.1,0.6c-0.3,1.3-0.6,2.6-0.9,3.8 c0,0.2-0.1,0.4-0.1,0.6c-0.3,1.3-0.5,2.6-0.8,3.9c0,0.2-0.1,0.3-0.1,0.5c-0.2,1.4-0.5,2.7-0.7,4.1c0,0,0,0,0,0.1 c-0.2,1.4-0.4,2.7-0.5,4.1c0,0.1,0,0.2,0,0.4c0.8-0.7,1.6-1.5,2.4-2.2C41.1,69.8,41.3,69.6,41.6,69.4z" />
	<path fill="#8bc6e5" d="M49.6,77.3c0.3,0,0.6,0.1,0.8,0.1c1.1,0.2,2.2,0.3,3.4,0.5c0.3,0.1,0.7,0.1,1,0.2c1.1,0.2,2.2,0.4,3.3,0.6 c0.3,0.1,0.6,0.1,0.9,0.2c1.1,0.2,2.2,0.5,3.3,0.7c0.2,0,0.4,0.1,0.6,0.1c1.1,0.2,2.1,0.5,3.2,0.8c0.3,0.1,0.5,0.1,0.8,0.2 c1.1,0.3,2.2,0.6,3.3,0.9c0.3,0.1,0.6,0.2,0.9,0.2c1.1,0.3,2.2,0.7,3.3,1c0.2,0.1,0.5,0.2,0.7,0.2c1.2,0.4,2.3,0.8,3.5,1.2 c0.1,0,0.2,0.1,0.2,0.1c1.1,0.4,2.3,0.8,3.4,1.3c0.2,0.1,0.4,0.1,0.6,0.2c1.1,0.4,2.2,0.9,3.3,1.4c0.2,0.1,0.4,0.2,0.7,0.3 c1.1,0.5,2.2,1,3.3,1.5c0.2,0.1,0.4,0.2,0.5,0.2c1.2,0.5,2.3,1.1,3.4,1.6l0,0c1.1,0.6,2.3,1.1,3.4,1.7c0.2,0.1,0.3,0.2,0.5,0.3 c1.1,0.6,2.2,1.2,3.2,1.8c0.2,0.1,0.4,0.2,0.6,0.3c1.1,0.6,2.1,1.2,3.2,1.9c0.2,0.1,0.3,0.2,0.5,0.3c1.1,0.7,2.2,1.4,3.3,2.1 c1.2,0.8,2.4,1.6,3.6,2.4c0.4,0.3,0.8,0.6,1.2,0.8c0.8,0.6,1.6,1.1,2.4,1.7c0.5,0.3,0.9,0.7,1.4,1c0.7,0.5,1.4,1.1,2.1,1.6 c0.5,0.4,0.9,0.7,1.4,1.1c0.7,0.6,1.4,1.1,2,1.7c0.5,0.4,0.9,0.8,1.4,1.2c0.7,0.6,1.3,1.2,2,1.8c0.4,0.4,0.9,0.8,1.3,1.1 c0.7,0.6,1.4,1.3,2.1,2c0.4,0.3,0.7,0.7,1.1,1c0.9,0.8,1.7,1.7,2.5,2.5c0.2,0.2,0.4,0.4,0.6,0.6l0.1,0.1l15-15 c13.5-13.5,13.5-35.4,0-48.9l-12.7-12.7c-0.4,0-0.8,0-1.2,0c-1.1,0-2.2,0-3.3,0c-0.4,0-0.7,0-1.1,0c-0.7,0-1.5,0-2.2,0.1 c-0.4,0-0.9,0-1.3,0.1c-0.7,0-1.3,0.1-2,0.1c-0.5,0-0.9,0.1-1.4,0.1c-0.6,0.1-1.2,0.1-1.9,0.2c-0.5,0-0.9,0.1-1.4,0.1 c-0.6,0.1-1.2,0.1-1.8,0.2c-0.5,0.1-0.9,0.1-1.4,0.2c-0.6,0.1-1.2,0.2-1.8,0.2c-0.5,0.1-0.9,0.1-1.4,0.2c-0.6,0.1-1.2,0.2-1.8,0.3 c-0.5,0.1-0.9,0.2-1.4,0.2c-0.6,0.1-1.2,0.2-1.8,0.3c-0.4,0.1-0.9,0.2-1.3,0.3c-0.6,0.1-1.3,0.3-1.9,0.4c-0.4,0.1-0.8,0.2-1.2,0.3 c-0.8,0.2-1.5,0.4-2.3,0.5c-0.3,0.1-0.5,0.1-0.8,0.2c-1,0.3-2,0.5-3.1,0.8c-0.3,0.1-0.6,0.2-0.9,0.3c-0.7,0.2-1.5,0.4-2.2,0.6 c-0.4,0.1-0.8,0.2-1.2,0.4c-0.6,0.2-1.2,0.4-1.8,0.6c-0.4,0.1-0.8,0.3-1.3,0.4c-0.6,0.2-1.2,0.4-1.7,0.6c-0.4,0.2-0.9,0.3-1.3,0.5 c-0.6,0.2-1.1,0.4-1.7,0.6c-0.4,0.2-0.9,0.3-1.3,0.5c-0.5,0.2-1.1,0.4-1.6,0.7c-0.4,0.2-0.9,0.4-1.3,0.5c-0.5,0.2-1.1,0.5-1.6,0.7 c-0.4,0.2-0.9,0.4-1.3,0.6c-0.5,0.2-1.1,0.5-1.6,0.8c-0.4,0.2-0.8,0.4-1.2,0.6c-0.6,0.3-1.1,0.6-1.7,0.8c-0.4,0.2-0.8,0.4-1.2,0.6 c-0.6,0.3-1.2,0.6-1.8,1c-0.3,0.2-0.7,0.3-1,0.5c-0.9,0.5-1.8,1-2.8,1.5c-0.1,0.1-0.2,0.1-0.3,0.2c-0.8,0.5-1.6,0.9-2.4,1.4 c-0.3,0.2-0.7,0.4-1,0.6c-0.6,0.4-1.2,0.7-1.7,1.1c-0.4,0.2-0.7,0.5-1.1,0.7c-0.5,0.3-1.1,0.7-1.6,1c-0.4,0.3-0.8,0.5-1.1,0.8 c-0.5,0.3-1,0.7-1.5,1c-0.4,0.3-0.8,0.5-1.1,0.8c-0.5,0.4-1,0.7-1.5,1.1c-0.4,0.3-0.8,0.6-1.1,0.8c-0.5,0.4-1,0.7-1.4,1.1 c-0.4,0.3-0.7,0.6-1.1,0.9c-0.5,0.4-1,0.8-1.4,1.2c-0.4,0.3-0.7,0.6-1.1,0.9c-0.5,0.4-1,0.8-1.5,1.2c-0.3,0.3-0.7,0.6-1,0.9 c-0.1,0.1-0.2,0.2-0.3,0.2c0.1,0,0.3,0,0.4,0C47.5,77,48.5,77.1,49.6,77.3z" />
	<path fill="#006894" d="M35.5,84.6l-2.1-0.1c-0.8,0-1.7,0-2.5,0c-1.2,0-2.5,0-3.7,0.1c-0.4,0-0.8,0-1.2,0c-0.8,0-1.7,0.1-2.5,0.1 c-0.5,0-0.9,0.1-1.4,0.1c-0.8,0-1.5,0.1-2.3,0.2c-0.5,0-1,0.1-1.5,0.1c-0.7,0.1-1.5,0.1-2.2,0.2c-0.5,0.1-1,0.1-1.4,0.2 c-0.8,0.1-1.5,0.2-2.3,0.3c-0.5,0.1-0.9,0.1-1.4,0.2c-0.8,0.1-1.7,0.3-2.5,0.4c-0.4,0.1-0.7,0.1-1.1,0.2C6.2,86.8,5,87,3.8,87.3 c1.3,6.6,4.6,12.7,9.4,17.5l43.4,43.4c6.5,6.5,15.2,10.1,24.5,10.1s18-3.6,24.5-10.1l22.4-22.4l-0.1-0.1c-0.3-0.3-0.6-0.6-0.9-0.9 c-0.7-0.7-1.4-1.4-2.1-2.1c-0.4-0.4-0.8-0.7-1.1-1.1c-0.6-0.6-1.2-1.2-1.9-1.8c-0.4-0.4-0.8-0.7-1.2-1.1c-0.6-0.6-1.2-1.1-1.9-1.6 c-0.4-0.4-0.9-0.7-1.3-1.1c-0.6-0.5-1.3-1.1-1.9-1.6c-0.4-0.3-0.9-0.7-1.3-1c-0.7-0.5-1.4-1.1-2-1.6c-0.4-0.3-0.8-0.6-1.3-0.9 c-0.8-0.6-1.5-1.1-2.3-1.6c-0.4-0.3-0.7-0.5-1.1-0.8c-1.1-0.8-2.3-1.6-3.4-2.3c-14-9.1-29.5-15.4-45.7-18.8 c-7.4-1.5-14.9-2.5-22.5-2.7l0,0C35.8,84.6,35.6,84.6,35.5,84.6z" />
</svg>